{"asset":{"generator":"glTF-Transform v4.4.2","version":"2.0"},"accessors":[{"type":"VEC3","componentType":5126,"count":413,"max":[0.33625468611717224,0.3095194399356842,0.19797927141189575],"min":[-0.1979786902666092,-0.23884634673595428,-0.19797973334789276],"bufferView":0,"byteOffset":0},{"type":"VEC2","componentType":5126,"count":413,"bufferView":0,"byteOffset":12},{"type":"VEC3","componentType":5126,"count":413,"bufferView":0,"byteOffset":20},{"type":"SCALAR","componentType":5123,"count":1278,"bufferView":1,"byteOffset":0}],"bufferViews":[{"buffer":0,"byteOffset":0,"byteLength":13216,"byteStride":32,"target":34962},{"buffer":0,"byteOffset":13216,"byteLength":2556,"target":34963}],"samplers":[{"magFilter":9729,"minFilter":9987,"wrapS":10497,"wrapT":10497}],"textures":[{"source":0,"sampler":0}],"images":[{"name":"barbarian_texture","mimeType":"image/png","uri":"barbarian_texture.png"}],"buffers":[{"uri":"mug_full.44409417.bin","byteLength":15772}],"materials":[{"name":"barbarian_texture","doubleSided":true,"pbrMetallicRoughness":{"roughnessFactor":0.5,"metallicFactor":0,"baseColorTexture":{"index":0}}}],"meshes":[{"name":"Cylinder.061","primitives":[{"attributes":{"POSITION":0,"TEXCOORD_0":1,"NORMAL":2},"mode":4,"material":0,"indices":3}]}],"nodes":[{"name":"mug_full","mesh":0}],"scenes":[{"name":"Scene","nodes":[0]}],"scene":0}