{"asset":{"generator":"glTF-Transform v4.4.2","version":"2.0"},"accessors":[{"type":"VEC3","componentType":5126,"count":389,"max":[0.33625468611717224,0.2479029893875122,0.19797927141189575],"min":[-0.1979786902666092,-0.23884634673595428,-0.19797973334789276],"bufferView":0,"byteOffset":0},{"type":"VEC2","componentType":5126,"count":389,"bufferView":0,"byteOffset":12},{"type":"VEC3","componentType":5126,"count":389,"bufferView":0,"byteOffset":20},{"type":"SCALAR","componentType":5123,"count":1098,"bufferView":1,"byteOffset":0}],"bufferViews":[{"buffer":0,"byteOffset":0,"byteLength":12448,"byteStride":32,"target":34962},{"buffer":0,"byteOffset":12448,"byteLength":2196,"target":34963}],"samplers":[{"magFilter":9729,"minFilter":9987,"wrapS":10497,"wrapT":10497}],"textures":[{"source":0,"sampler":0}],"images":[{"name":"barbarian_texture","mimeType":"image/png","uri":"barbarian_texture.png"}],"buffers":[{"uri":"mug_empty.e509c8a4.bin","byteLength":14644}],"materials":[{"name":"barbarian_texture","doubleSided":true,"pbrMetallicRoughness":{"roughnessFactor":0.5,"metallicFactor":0,"baseColorTexture":{"index":0}}}],"meshes":[{"name":"Cylinder.062","primitives":[{"attributes":{"POSITION":0,"TEXCOORD_0":1,"NORMAL":2},"mode":4,"material":0,"indices":3}]}],"nodes":[{"name":"mug_empty","mesh":0}],"scenes":[{"name":"Scene","nodes":[0]}],"scene":0}