{"asset":{"generator":"glTF-Transform v4.4.2","version":"2.0"},"accessors":[{"type":"VEC3","componentType":5126,"count":112,"max":[0.13000085949897766,0.25000014901161194,0.18754282593727112],"min":[-0.12999913096427917,-0.2499997317790985,-0.17745713889598846],"bufferView":0,"byteOffset":0},{"type":"VEC2","componentType":5126,"count":112,"bufferView":0,"byteOffset":12},{"type":"VEC3","componentType":5126,"count":112,"bufferView":0,"byteOffset":20},{"type":"SCALAR","componentType":5123,"count":204,"bufferView":1,"byteOffset":0}],"bufferViews":[{"buffer":0,"byteOffset":0,"byteLength":3584,"byteStride":32,"target":34962},{"buffer":0,"byteOffset":3584,"byteLength":408,"target":34963}],"samplers":[{"magFilter":9729,"minFilter":9987,"wrapS":10497,"wrapT":10497}],"textures":[{"source":0,"sampler":0}],"images":[{"name":"furniturebits_texture","mimeType":"image/png","uri":"furniturebits_texture.png"}],"buffers":[{"uri":"book_single.fbd4a6b8.bin","byteLength":3992}],"materials":[{"name":"furniture_texture","pbrMetallicRoughness":{"roughnessFactor":0.5,"metallicFactor":0,"baseColorTexture":{"index":0}}}],"meshes":[{"name":"Cube.008","primitives":[{"attributes":{"POSITION":0,"TEXCOORD_0":1,"NORMAL":2},"mode":4,"material":0,"indices":3}]}],"nodes":[{"name":"book_single","mesh":0}],"scenes":[{"name":"Scene","nodes":[0]}],"scene":0}