{"asset":{"generator":"glTF-Transform v4.4.2","version":"2.0"},"accessors":[{"type":"VEC3","componentType":5126,"count":325,"max":[0.3900008499622345,0.25000014901161194,0.18754282593727112],"min":[-0.389999121427536,-0.2499997317790985,-0.17745713889598846],"bufferView":0,"byteOffset":0},{"type":"VEC2","componentType":5126,"count":325,"bufferView":0,"byteOffset":12},{"type":"VEC3","componentType":5126,"count":325,"bufferView":0,"byteOffset":20},{"type":"SCALAR","componentType":5123,"count":588,"bufferView":1,"byteOffset":0}],"bufferViews":[{"buffer":0,"byteOffset":0,"byteLength":10400,"byteStride":32,"target":34962},{"buffer":0,"byteOffset":10400,"byteLength":1176,"target":34963}],"samplers":[{"magFilter":9729,"minFilter":9987,"wrapS":10497,"wrapT":10497}],"textures":[{"source":0,"sampler":0}],"images":[{"name":"furniturebits_texture","mimeType":"image/png","uri":"furniturebits_texture.png"}],"buffers":[{"uri":"book_set.6719eaa2.bin","byteLength":11576}],"materials":[{"name":"furniture_texture","pbrMetallicRoughness":{"roughnessFactor":0.5,"metallicFactor":0,"baseColorTexture":{"index":0}}}],"meshes":[{"name":"Cube.007","primitives":[{"attributes":{"POSITION":0,"TEXCOORD_0":1,"NORMAL":2},"mode":4,"material":0,"indices":3}]}],"nodes":[{"name":"book_set","mesh":0}],"scenes":[{"name":"Scene","nodes":[0]}],"scene":0}