{"asset":{"generator":"glTF-Transform v4.4.2","version":"2.0"},"accessors":[{"type":"VEC3","componentType":5126,"count":1187,"max":[0.3368363678455353,0.8260108828544617,0.3753618001937866],"min":[-0.31495729088783264,-0.000001611560833225667,-0.3753618001937866],"bufferView":0,"byteOffset":0},{"type":"VEC2","componentType":5126,"count":1187,"bufferView":0,"byteOffset":12},{"type":"VEC3","componentType":5126,"count":1187,"bufferView":0,"byteOffset":20},{"type":"SCALAR","componentType":5123,"count":2178,"bufferView":1,"byteOffset":0}],"bufferViews":[{"buffer":0,"byteOffset":0,"byteLength":37984,"byteStride":32,"target":34962},{"buffer":0,"byteOffset":37984,"byteLength":4356,"target":34963}],"samplers":[{"magFilter":9729,"minFilter":9987,"wrapS":10497,"wrapT":10497}],"textures":[{"source":0,"sampler":0}],"images":[{"name":"hexagons_medieval","mimeType":"image/png","uri":"hexagons_medieval.png"}],"buffers":[{"uri":"building_well_blue.fcf14eb2.bin","byteLength":42340}],"materials":[{"name":"hexagons_medieval","pbrMetallicRoughness":{"roughnessFactor":0.5,"metallicFactor":0,"baseColorTexture":{"index":0}}}],"meshes":[{"name":"building_well_blue","primitives":[{"attributes":{"POSITION":0,"TEXCOORD_0":1,"NORMAL":2},"mode":4,"material":0,"indices":3}]}],"nodes":[{"name":"building_well_blue","mesh":0}],"scenes":[{"name":"Scene","nodes":[0]}],"scene":0}