{"asset":{"generator":"glTF-Transform v4.4.2","version":"2.0"},"accessors":[{"type":"VEC3","componentType":5126,"count":1159,"max":[0.5660538077354431,0.27999743819236755,0.5326917171478271],"min":[-0.4806442856788635,-0.005895562469959259,-0.34231916069984436],"bufferView":0,"byteOffset":0},{"type":"VEC2","componentType":5126,"count":1159,"bufferView":0,"byteOffset":12},{"type":"VEC3","componentType":5126,"count":1159,"bufferView":0,"byteOffset":20},{"type":"SCALAR","componentType":5123,"count":2352,"bufferView":1,"byteOffset":0}],"bufferViews":[{"buffer":0,"byteOffset":0,"byteLength":37088,"byteStride":32,"target":34962},{"buffer":0,"byteOffset":37088,"byteLength":4704,"target":34963}],"samplers":[{"magFilter":9729,"minFilter":9987,"wrapS":10497,"wrapT":10497}],"textures":[{"source":0,"sampler":0}],"images":[{"name":"hexagons_medieval","mimeType":"image/png","uri":"hexagons_medieval.png"}],"buffers":[{"uri":"building_stage_A.d8b09e25.bin","byteLength":41792}],"materials":[{"name":"hexagons_medieval","pbrMetallicRoughness":{"roughnessFactor":0.5,"metallicFactor":0,"baseColorTexture":{"index":0}}}],"meshes":[{"name":"building_stage_A","primitives":[{"attributes":{"POSITION":0,"TEXCOORD_0":1,"NORMAL":2},"mode":4,"material":0,"indices":3}]}],"nodes":[{"name":"building_stage_A","mesh":0}],"scenes":[{"name":"Scene","nodes":[0]}],"scene":0}