{"asset":{"generator":"glTF-Transform v4.4.2","version":"2.0"},"accessors":[{"type":"VEC3","componentType":5126,"count":4169,"max":[0.8980000615119934,0.9760011434555054,0.6006025075912476],"min":[-0.9013807773590088,-0.005638472735881805,-0.7149999737739563],"bufferView":0,"byteOffset":0},{"type":"VEC2","componentType":5126,"count":4169,"bufferView":0,"byteOffset":12},{"type":"VEC3","componentType":5126,"count":4169,"bufferView":0,"byteOffset":20},{"type":"SCALAR","componentType":5123,"count":9375,"bufferView":1,"byteOffset":0}],"bufferViews":[{"buffer":0,"byteOffset":0,"byteLength":133408,"byteStride":32,"target":34962},{"buffer":0,"byteOffset":133408,"byteLength":18752,"target":34963}],"samplers":[{"magFilter":9729,"minFilter":9987,"wrapS":10497,"wrapT":10497}],"textures":[{"source":0,"sampler":0}],"images":[{"name":"hexagons_medieval","mimeType":"image/png","uri":"hexagons_medieval.png"}],"buffers":[{"uri":"building_market_red.af37c75e.bin","byteLength":152160}],"materials":[{"name":"hexagons_medieval","pbrMetallicRoughness":{"roughnessFactor":0.5,"metallicFactor":0,"baseColorTexture":{"index":0}}}],"meshes":[{"name":"building_market_red","primitives":[{"attributes":{"POSITION":0,"TEXCOORD_0":1,"NORMAL":2},"mode":4,"material":0,"indices":3}]}],"nodes":[{"name":"building_market_red","mesh":0}],"scenes":[{"name":"Scene","nodes":[0]}],"scene":0}