{"asset":{"generator":"glTF-Transform v4.4.2","version":"2.0"},"accessors":[{"type":"VEC3","componentType":5126,"count":861,"max":[0.49663636088371277,2.191734552383423,0.5734661817550659],"min":[-0.49663642048835754,1.2779241800308228,-0.5734661817550659],"bufferView":0,"byteOffset":0},{"type":"VEC2","componentType":5126,"count":861,"bufferView":0,"byteOffset":12},{"type":"VEC3","componentType":5126,"count":861,"bufferView":0,"byteOffset":20},{"type":"SCALAR","componentType":5123,"count":1800,"bufferView":1,"byteOffset":0},{"type":"SCALAR","componentType":5123,"count":4614,"bufferView":1,"byteOffset":3600},{"type":"VEC3","componentType":5126,"count":2265,"max":[0.4648962616920471,1.5,0.5800000429153442],"min":[-0.4648962616920471,0,-0.5311260223388672],"bufferView":2,"byteOffset":0},{"type":"VEC2","componentType":5126,"count":2265,"bufferView":2,"byteOffset":12},{"type":"VEC3","componentType":5126,"count":2265,"bufferView":2,"byteOffset":20}],"bufferViews":[{"buffer":0,"byteOffset":0,"byteLength":27552,"byteStride":32,"target":34962},{"buffer":0,"byteOffset":27552,"byteLength":12828,"target":34963},{"buffer":0,"byteOffset":40380,"byteLength":72480,"byteStride":32,"target":34962}],"samplers":[{"magFilter":9729,"minFilter":9987,"wrapS":10497,"wrapT":10497}],"textures":[{"source":0,"sampler":0}],"images":[{"name":"hexagons_medieval","mimeType":"image/png","uri":"hexagons_medieval.png"}],"buffers":[{"uri":"building_tower_A_blue.2669af5a.bin","byteLength":112860}],"materials":[{"name":"hexagons_medieval","pbrMetallicRoughness":{"roughnessFactor":0.5,"metallicFactor":0,"baseColorTexture":{"index":0}}}],"meshes":[{"name":"building_tower_A_top_blue","primitives":[{"attributes":{"POSITION":0,"TEXCOORD_0":1,"NORMAL":2},"mode":4,"material":0,"indices":3}]},{"name":"building_tower_A_blue","primitives":[{"attributes":{"POSITION":5,"TEXCOORD_0":6,"NORMAL":7},"mode":4,"material":0,"indices":4}]}],"nodes":[{"name":"building_tower_A_top_blue","mesh":0},{"name":"building_tower_A_blue","mesh":1,"children":[0]}],"scenes":[{"name":"Scene","nodes":[1]}],"scene":0}