{"asset":{"generator":"glTF-Transform v4.4.2","version":"2.0"},"accessors":[{"type":"VEC3","componentType":5126,"count":695,"max":[0.5008417963981628,0.5008417367935181,0.10544100403785706],"min":[-0.5008417963981628,-0.5008417963981628,0],"bufferView":0,"byteOffset":0},{"type":"VEC2","componentType":5126,"count":695,"bufferView":0,"byteOffset":12},{"type":"VEC3","componentType":5126,"count":695,"bufferView":0,"byteOffset":20},{"type":"SCALAR","componentType":5123,"count":1080,"bufferView":1,"byteOffset":0},{"type":"SCALAR","componentType":5123,"count":1539,"bufferView":1,"byteOffset":2160},{"type":"SCALAR","componentType":5123,"count":5340,"bufferView":1,"byteOffset":5240},{"type":"VEC3","componentType":5126,"count":697,"max":[0.33200445771217346,0.6937967538833618,0.33214014768600464],"min":[-0.33200445771217346,0,-0.3320044279098511],"bufferView":2,"byteOffset":0},{"type":"VEC2","componentType":5126,"count":697,"bufferView":2,"byteOffset":12},{"type":"VEC3","componentType":5126,"count":697,"bufferView":2,"byteOffset":20},{"type":"VEC3","componentType":5126,"count":2538,"max":[0.5678712129592896,0.6852657198905945,0.4149998426437378],"min":[-0.5578987002372742,-0.000014480118807114195,-0.37893959879875183],"bufferView":3,"byteOffset":0},{"type":"VEC2","componentType":5126,"count":2538,"bufferView":3,"byteOffset":12},{"type":"VEC3","componentType":5126,"count":2538,"bufferView":3,"byteOffset":20}],"bufferViews":[{"buffer":0,"byteOffset":0,"byteLength":22240,"byteStride":32,"target":34962},{"buffer":0,"byteOffset":22240,"byteLength":15920,"target":34963},{"buffer":0,"byteOffset":38160,"byteLength":22304,"byteStride":32,"target":34962},{"buffer":0,"byteOffset":60464,"byteLength":81216,"byteStride":32,"target":34962}],"samplers":[{"magFilter":9729,"minFilter":9987,"wrapS":10497,"wrapT":10497}],"textures":[{"source":0,"sampler":0}],"images":[{"name":"hexagons_medieval","mimeType":"image/png","uri":"hexagons_medieval.png"}],"buffers":[{"uri":"building_windmill_green.7bc670c8.bin","byteLength":141680}],"materials":[{"name":"hexagons_medieval","pbrMetallicRoughness":{"roughnessFactor":0.5,"metallicFactor":0,"baseColorTexture":{"index":0}}}],"meshes":[{"name":"building_windmill_top_fan_green","primitives":[{"attributes":{"POSITION":0,"TEXCOORD_0":1,"NORMAL":2},"mode":4,"material":0,"indices":3}]},{"name":"building_windmill_top_green","primitives":[{"attributes":{"POSITION":6,"TEXCOORD_0":7,"NORMAL":8},"mode":4,"material":0,"indices":4}]},{"name":"building_windmill_green","primitives":[{"attributes":{"POSITION":9,"TEXCOORD_0":10,"NORMAL":11},"mode":4,"material":0,"indices":5}]}],"nodes":[{"name":"building_windmill_top_fan_green","translation":[-0.00000762939453125,0.27165576815605164,0.3321409225463867],"mesh":0},{"name":"building_windmill_top_green","translation":[0,0.685367226600647,0],"mesh":1,"children":[0]},{"name":"building_windmill_green","mesh":2,"children":[1]}],"scenes":[{"name":"Scene","nodes":[2]}],"scene":0}