{"asset":{"generator":"glTF-Transform v4.4.2","version":"2.0"},"accessors":[{"type":"VEC3","componentType":5126,"count":892,"max":[0.5250188708305359,0.5249958038330078,0.21000000834465027],"min":[-0.5249811410903931,-0.5250043272972107,-0.21000000834465027],"bufferView":0,"byteOffset":0},{"type":"VEC2","componentType":5126,"count":892,"bufferView":0,"byteOffset":12},{"type":"VEC3","componentType":5126,"count":892,"bufferView":0,"byteOffset":20},{"type":"SCALAR","componentType":5123,"count":1824,"bufferView":1,"byteOffset":0},{"type":"SCALAR","componentType":5123,"count":3939,"bufferView":1,"byteOffset":3648},{"type":"VEC3","componentType":5126,"count":2227,"max":[0.489999920129776,1.2180038690567017,0.8659927845001221],"min":[-0.49868980050086975,-0.35000041127204895,-0.3699711859226227],"bufferView":2,"byteOffset":0},{"type":"VEC2","componentType":5126,"count":2227,"bufferView":2,"byteOffset":12},{"type":"VEC3","componentType":5126,"count":2227,"bufferView":2,"byteOffset":20}],"bufferViews":[{"buffer":0,"byteOffset":0,"byteLength":28544,"byteStride":32,"target":34962},{"buffer":0,"byteOffset":28544,"byteLength":11528,"target":34963},{"buffer":0,"byteOffset":40072,"byteLength":71264,"byteStride":32,"target":34962}],"samplers":[{"magFilter":9729,"minFilter":9987,"wrapS":10497,"wrapT":10497}],"textures":[{"source":0,"sampler":0}],"images":[{"name":"hexagons_medieval","mimeType":"image/png","uri":"hexagons_medieval.png"}],"buffers":[{"uri":"building_watermill_blue.85bbffe5.bin","byteLength":111336}],"materials":[{"name":"hexagons_medieval","pbrMetallicRoughness":{"roughnessFactor":0.5,"metallicFactor":0,"baseColorTexture":{"index":0}}}],"meshes":[{"name":"building_watermill_wheel_blue","primitives":[{"attributes":{"POSITION":0,"TEXCOORD_0":1,"NORMAL":2},"mode":4,"material":0,"indices":3}]},{"name":"building_watermill_blue","primitives":[{"attributes":{"POSITION":5,"TEXCOORD_0":6,"NORMAL":7},"mode":4,"material":0,"indices":4}]}],"nodes":[{"name":"building_watermill_wheel_blue","translation":[0,0.24500423669815063,-0.05498695373535156],"mesh":0},{"name":"building_watermill_blue","mesh":1,"children":[0]}],"scenes":[{"name":"Scene","nodes":[1]}],"scene":0}