{
  "asset": {
    "generator": "glTF-Transform v4.4.2",
    "version": "2.0"
  },
  "accessors": [
    {
      "type": "VEC3",
      "componentType": 5126,
      "count": 516,
      "max": [
        0.14000001549720764,
        0.24500000476837158,
        0.24500000476837158
      ],
      "min": [
        -0.14000003039836884,
        -0.2449999451637268,
        -0.24500001966953278
      ],
      "bufferView": 0,
      "byteOffset": 0
    },
    {
      "type": "VEC2",
      "componentType": 5126,
      "count": 516,
      "bufferView": 0,
      "byteOffset": 12
    },
    {
      "type": "VEC3",
      "componentType": 5126,
      "count": 516,
      "bufferView": 0,
      "byteOffset": 20
    },
    {
      "type": "SCALAR",
      "componentType": 5123,
      "count": 900,
      "bufferView": 1,
      "byteOffset": 0
    },
    {
      "type": "SCALAR",
      "componentType": 5123,
      "count": 3450,
      "bufferView": 1,
      "byteOffset": 1800
    },
    {
      "type": "SCALAR",
      "componentType": 5123,
      "count": 5160,
      "bufferView": 1,
      "byteOffset": 8700
    },
    {
      "type": "VEC3",
      "componentType": 5126,
      "count": 1577,
      "max": [
        0.3955053687095642,
        0.6543220281600952,
        0.8699597120285034
      ],
      "min": [
        -0.3150000274181366,
        -1.1920928955078125e-7,
        -0.3149999976158142
      ],
      "bufferView": 2,
      "byteOffset": 0
    },
    {
      "type": "VEC2",
      "componentType": 5126,
      "count": 1577,
      "bufferView": 2,
      "byteOffset": 12
    },
    {
      "type": "VEC3",
      "componentType": 5126,
      "count": 1577,
      "bufferView": 2,
      "byteOffset": 20
    },
    {
      "type": "VEC3",
      "componentType": 5126,
      "count": 2509,
      "max": [
        0.6808386445045471,
        1.0500010251998901,
        0.567771315574646
      ],
      "min": [
        -0.6861284375190735,
        -0.0035033971071243286,
        -0.4592732787132263
      ],
      "bufferView": 3,
      "byteOffset": 0
    },
    {
      "type": "VEC2",
      "componentType": 5126,
      "count": 2509,
      "bufferView": 3,
      "byteOffset": 12
    },
    {
      "type": "VEC3",
      "componentType": 5126,
      "count": 2509,
      "bufferView": 3,
      "byteOffset": 20
    }
  ],
  "bufferViews": [
    {
      "buffer": 0,
      "byteOffset": 0,
      "byteLength": 16512,
      "byteStride": 32,
      "target": 34962
    },
    {
      "buffer": 0,
      "byteOffset": 16512,
      "byteLength": 19020,
      "target": 34963
    },
    {
      "buffer": 0,
      "byteOffset": 35532,
      "byteLength": 50464,
      "byteStride": 32,
      "target": 34962
    },
    {
      "buffer": 0,
      "byteOffset": 85996,
      "byteLength": 80288,
      "byteStride": 32,
      "target": 34962
    }
  ],
  "samplers": [
    {
      "magFilter": 9729,
      "minFilter": 9987,
      "wrapS": 10497,
      "wrapT": 10497
    }
  ],
  "textures": [
    {
      "source": 0,
      "sampler": 0
    }
  ],
  "images": [
    {
      "name": "hexagons_medieval",
      "mimeType": "image/png",
      "uri": "hexagons_medieval.png"
    }
  ],
  "buffers": [
    {
      "uri": "building_lumbermill_red.bin",
      "byteLength": 166284
    }
  ],
  "materials": [
    {
      "name": "hexagons_medieval",
      "pbrMetallicRoughness": {
        "roughnessFactor": 0.5,
        "metallicFactor": 0,
        "baseColorTexture": {
          "index": 0
        }
      }
    }
  ],
  "meshes": [
    {
      "name": "building_lumbermill_saw_red",
      "primitives": [
        {
          "attributes": {
            "POSITION": 0,
            "TEXCOORD_0": 1,
            "NORMAL": 2
          },
          "mode": 4,
          "material": 0,
          "indices": 3
        }
      ]
    },
    {
      "name": "building_lumbermill_top_red",
      "primitives": [
        {
          "attributes": {
            "POSITION": 6,
            "TEXCOORD_0": 7,
            "NORMAL": 8
          },
          "mode": 4,
          "material": 0,
          "indices": 4
        }
      ]
    },
    {
      "name": "building_lumbermill_red",
      "primitives": [
        {
          "attributes": {
            "POSITION": 9,
            "TEXCOORD_0": 10,
            "NORMAL": 11
          },
          "mode": 4,
          "material": 0,
          "indices": 5
        }
      ]
    }
  ],
  "nodes": [
    {
      "name": "building_lumbermill_saw_red",
      "translation": [
        0.2799956798553467,
        0.28000104427337646,
        0
      ],
      "mesh": 0
    },
    {
      "name": "building_lumbermill_top_red",
      "translation": [
        -0.14000844955444336,
        1.0500000715255737,
        -0.1399998664855957
      ],
      "mesh": 1
    },
    {
      "name": "building_lumbermill_red",
      "mesh": 2,
      "children": [
        0,
        1
      ]
    }
  ],
  "scenes": [
    {
      "name": "Scene",
      "nodes": [
        2
      ]
    }
  ],
  "scene": 0
}