{"asset":{"generator":"glTF-Transform v4.4.2","version":"2.0"},"accessors":[{"type":"VEC3","componentType":5126,"count":4672,"max":[0.9719993472099304,1.2960000038146973,1.0224353075027466],"min":[-0.9284766316413879,-0.0026358962059020996,-1.0868645906448364],"bufferView":0,"byteOffset":0},{"type":"VEC2","componentType":5126,"count":4672,"bufferView":0,"byteOffset":12},{"type":"VEC3","componentType":5126,"count":4672,"bufferView":0,"byteOffset":20},{"type":"SCALAR","componentType":5123,"count":8016,"bufferView":1,"byteOffset":0}],"bufferViews":[{"buffer":0,"byteOffset":0,"byteLength":149504,"byteStride":32,"target":34962},{"buffer":0,"byteOffset":149504,"byteLength":16032,"target":34963}],"samplers":[{"magFilter":9729,"minFilter":9987,"wrapS":10497,"wrapT":10497}],"textures":[{"source":0,"sampler":0}],"images":[{"name":"hexagons_medieval","mimeType":"image/png","uri":"hexagons_medieval.png"}],"buffers":[{"uri":"building_scaffolding.5924adef.bin","byteLength":165536}],"materials":[{"name":"hexagons_medieval","pbrMetallicRoughness":{"roughnessFactor":0.5,"metallicFactor":0,"baseColorTexture":{"index":0}}}],"meshes":[{"name":"building_scaffolding","primitives":[{"attributes":{"POSITION":0,"TEXCOORD_0":1,"NORMAL":2},"mode":4,"material":0,"indices":3}]}],"nodes":[{"name":"building_scaffolding","mesh":0}],"scenes":[{"name":"Scene","nodes":[0]}],"scene":0}