{"asset":{"generator":"glTF-Transform v4.4.2","version":"2.0"},"accessors":[{"type":"VEC3","componentType":5126,"count":458,"max":[0.375,1.2583259344100952,0.3749999403953552],"min":[-0.375,-7.450580596923828e-9,-0.47012859582901],"bufferView":0,"byteOffset":0},{"type":"VEC2","componentType":5126,"count":458,"bufferView":0,"byteOffset":12},{"type":"VEC3","componentType":5126,"count":458,"bufferView":0,"byteOffset":20},{"type":"SCALAR","componentType":5123,"count":924,"bufferView":1,"byteOffset":0}],"bufferViews":[{"buffer":0,"byteOffset":0,"byteLength":14656,"byteStride":32,"target":34962},{"buffer":0,"byteOffset":14656,"byteLength":1848,"target":34963}],"samplers":[{"magFilter":9729,"minFilter":9987,"wrapS":10497,"wrapT":10497}],"textures":[{"source":0,"sampler":0}],"images":[{"name":"furniturebits_texture","mimeType":"image/png","uri":"furniturebits_texture.png"}],"buffers":[{"uri":"chair_A_wood.94dcd391.bin","byteLength":16504}],"materials":[{"name":"furniture_texture","pbrMetallicRoughness":{"roughnessFactor":0.5,"metallicFactor":0,"baseColorTexture":{"index":0}}}],"meshes":[{"name":"Cube.036","primitives":[{"attributes":{"POSITION":0,"TEXCOORD_0":1,"NORMAL":2},"mode":4,"material":0,"indices":3}]}],"nodes":[{"name":"chair_A_wood","mesh":0}],"scenes":[{"name":"Scene","nodes":[0]}],"scene":0}