{"asset":{"generator":"glTF-Transform v4.4.2","version":"2.0"},"accessors":[{"type":"VEC3","componentType":5126,"count":550,"max":[1.5000001192092896,1.2240597009658813,0.8500000238418579],"min":[-1.5000001192092896,0,-0.75],"bufferView":0,"byteOffset":0},{"type":"VEC2","componentType":5126,"count":550,"bufferView":0,"byteOffset":12},{"type":"VEC3","componentType":5126,"count":550,"bufferView":0,"byteOffset":20},{"type":"SCALAR","componentType":5123,"count":1908,"bufferView":1,"byteOffset":0}],"bufferViews":[{"buffer":0,"byteOffset":0,"byteLength":17600,"byteStride":32,"target":34962},{"buffer":0,"byteOffset":17600,"byteLength":3816,"target":34963}],"samplers":[{"magFilter":9729,"minFilter":9987,"wrapS":10497,"wrapT":10497}],"textures":[{"source":0,"sampler":0}],"images":[{"name":"furniturebits_texture","mimeType":"image/png","uri":"furniturebits_texture.png"}],"buffers":[{"uri":"couch.fa38f012.bin","byteLength":21416}],"materials":[{"name":"furniture_texture","pbrMetallicRoughness":{"roughnessFactor":0.5,"metallicFactor":0,"baseColorTexture":{"index":0}}}],"meshes":[{"name":"Plane.002","primitives":[{"attributes":{"POSITION":0,"TEXCOORD_0":1,"NORMAL":2},"mode":4,"material":0,"indices":3}]}],"nodes":[{"name":"couch","mesh":0}],"scenes":[{"name":"Scene","nodes":[0]}],"scene":0}