{"asset":{"generator":"glTF-Transform v4.4.2","version":"2.0"},"accessors":[{"type":"VEC3","componentType":5126,"count":346,"max":[0.20000000298023224,0.15000000596046448,0.10000000149011612],"min":[-0.20000000298023224,0,-0.10000000149011612],"bufferView":0,"byteOffset":0},{"type":"VEC2","componentType":5126,"count":346,"bufferView":0,"byteOffset":12},{"type":"VEC3","componentType":5126,"count":346,"bufferView":0,"byteOffset":20},{"type":"SCALAR","componentType":5123,"count":1566,"bufferView":1,"byteOffset":0}],"bufferViews":[{"buffer":0,"byteOffset":0,"byteLength":11072,"byteStride":32,"target":34962},{"buffer":0,"byteOffset":11072,"byteLength":3132,"target":34963}],"samplers":[{"magFilter":9729,"minFilter":9987,"wrapS":10497,"wrapT":10497}],"textures":[{"source":0,"sampler":0}],"images":[{"name":"hexagons_medieval","mimeType":"image/png","uri":"hexagons_medieval.png"}],"buffers":[{"uri":"crate_long_A.e8e71d84.bin","byteLength":14204}],"materials":[{"name":"hexagons_medieval","pbrMetallicRoughness":{"roughnessFactor":0.5,"metallicFactor":0,"baseColorTexture":{"index":0}}}],"meshes":[{"name":"crate_long_A","primitives":[{"attributes":{"POSITION":0,"TEXCOORD_0":1,"NORMAL":2},"mode":4,"material":0,"indices":3}]}],"nodes":[{"name":"crate_long_A","mesh":0}],"scenes":[{"name":"Scene","nodes":[0]}],"scene":0}