{"asset":{"generator":"glTF-Transform v4.4.2","version":"2.0"},"accessors":[{"type":"VEC3","componentType":5126,"count":132,"max":[0.06244158744812012,0.2962718605995178,0.37642931938171387],"min":[-0.06244158744812012,-1.4901161193847656e-8,-0.010755553841590881],"bufferView":0,"byteOffset":0},{"type":"VEC2","componentType":5126,"count":132,"bufferView":0,"byteOffset":12},{"type":"VEC3","componentType":5126,"count":132,"bufferView":0,"byteOffset":20},{"type":"SCALAR","componentType":5123,"count":240,"bufferView":1,"byteOffset":0},{"type":"SCALAR","componentType":5123,"count":648,"bufferView":1,"byteOffset":480},{"type":"VEC3","componentType":5126,"count":316,"max":[-0.8999997973442078,0.21899424493312836,0.5773496031761169],"min":[-1.1000001430511475,-0.04999999329447746,-0.577350378036499],"bufferView":2,"byteOffset":0},{"type":"VEC2","componentType":5126,"count":316,"bufferView":2,"byteOffset":12},{"type":"VEC3","componentType":5126,"count":316,"bufferView":2,"byteOffset":20}],"bufferViews":[{"buffer":0,"byteOffset":0,"byteLength":4224,"byteStride":32,"target":34962},{"buffer":0,"byteOffset":4224,"byteLength":1776,"target":34963},{"buffer":0,"byteOffset":6000,"byteLength":10112,"byteStride":32,"target":34962}],"samplers":[{"magFilter":9729,"minFilter":9987,"wrapS":10497,"wrapT":10497}],"textures":[{"source":0,"sampler":0}],"images":[{"name":"hexagons_medieval","mimeType":"image/png","uri":"hexagons_medieval.png"}],"buffers":[{"uri":"fence_stone_straight_gate.d56370b5.bin","byteLength":16112}],"materials":[{"name":"hexagons_medieval","pbrMetallicRoughness":{"roughnessFactor":0.5,"metallicFactor":0,"baseColorTexture":{"index":0}}}],"meshes":[{"name":"fence_stone_straight_door","primitives":[{"attributes":{"POSITION":0,"TEXCOORD_0":1,"NORMAL":2},"mode":4,"material":0,"indices":3}]},{"name":"fence_stone_straight_gate","primitives":[{"attributes":{"POSITION":5,"TEXCOORD_0":6,"NORMAL":7},"mode":4,"material":0,"indices":4}]}],"nodes":[{"name":"fence_stone_straight_door","translation":[-1,-0.0499999076128006,-0.18282794952392578],"mesh":0},{"name":"fence_stone_straight_gate","mesh":1,"children":[0]}],"scenes":[{"name":"Scene","nodes":[1]}],"scene":0}