{"asset":{"generator":"glTF-Transform v4.4.2","version":"2.0"},"accessors":[{"type":"VEC3","componentType":5126,"count":430,"max":[-0.9499995708465576,0.5,0.5773504376411438],"min":[-1.0499995946884155,-0.05001270771026611,-0.5773505568504333],"bufferView":0,"byteOffset":0},{"type":"VEC2","componentType":5126,"count":430,"bufferView":0,"byteOffset":12},{"type":"VEC3","componentType":5126,"count":430,"bufferView":0,"byteOffset":20},{"type":"SCALAR","componentType":5123,"count":636,"bufferView":1,"byteOffset":0}],"bufferViews":[{"buffer":0,"byteOffset":0,"byteLength":13760,"byteStride":32,"target":34962},{"buffer":0,"byteOffset":13760,"byteLength":1272,"target":34963}],"samplers":[{"magFilter":9729,"minFilter":9987,"wrapS":10497,"wrapT":10497}],"textures":[{"source":0,"sampler":0}],"images":[{"name":"hexagons_medieval","mimeType":"image/png","uri":"hexagons_medieval.png"}],"buffers":[{"uri":"fence_wood_straight.ca33e37d.bin","byteLength":15032}],"materials":[{"name":"hexagons_medieval","pbrMetallicRoughness":{"roughnessFactor":0.5,"metallicFactor":0,"baseColorTexture":{"index":0}}}],"meshes":[{"name":"fence_wood_straight","primitives":[{"attributes":{"POSITION":0,"TEXCOORD_0":1,"NORMAL":2},"mode":4,"material":0,"indices":3}]}],"nodes":[{"name":"fence_wood_straight","mesh":0}],"scenes":[{"name":"Scene","nodes":[0]}],"scene":0}