{"asset":{"generator":"glTF-Transform v4.4.2","version":"2.0"},"accessors":[{"type":"VEC3","componentType":5126,"count":168,"max":[0.12660959362983704,0.7699999213218689,0.03324774280190468],"min":[-0.12661021947860718,-2.2737367544323206e-13,-0.01749947853386402],"bufferView":0,"byteOffset":0},{"type":"VEC2","componentType":5126,"count":168,"bufferView":0,"byteOffset":12},{"type":"VEC3","componentType":5126,"count":168,"bufferView":0,"byteOffset":20},{"type":"SCALAR","componentType":5123,"count":252,"bufferView":1,"byteOffset":0}],"bufferViews":[{"buffer":0,"byteOffset":0,"byteLength":5376,"byteStride":32,"target":34962},{"buffer":0,"byteOffset":5376,"byteLength":504,"target":34963}],"samplers":[{"magFilter":9729,"minFilter":9987,"wrapS":10497,"wrapT":10497}],"textures":[{"source":0,"sampler":0}],"images":[{"name":"hexagons_medieval","mimeType":"image/png","uri":"hexagons_medieval.png"}],"buffers":[{"uri":"ladder.d6fc448a.bin","byteLength":5880}],"materials":[{"name":"hexagons_medieval","pbrMetallicRoughness":{"roughnessFactor":0.5,"metallicFactor":0,"baseColorTexture":{"index":0}}}],"meshes":[{"name":"ladder","primitives":[{"attributes":{"POSITION":0,"TEXCOORD_0":1,"NORMAL":2},"mode":4,"material":0,"indices":3}]}],"nodes":[{"name":"ladder","mesh":0}],"scenes":[{"name":"Scene","nodes":[0]}],"scene":0}