{"asset":{"generator":"glTF-Transform v4.4.2","version":"2.0"},"accessors":[{"type":"VEC3","componentType":5126,"count":327,"max":[0.5,1.0199999809265137,0.4999999403953552],"min":[-0.5,-0.0016652223421260715,-0.5000000596046448],"bufferView":0,"byteOffset":0},{"type":"VEC2","componentType":5126,"count":327,"bufferView":0,"byteOffset":12},{"type":"VEC3","componentType":5126,"count":327,"bufferView":0,"byteOffset":20},{"type":"SCALAR","componentType":5123,"count":1176,"bufferView":1,"byteOffset":0}],"bufferViews":[{"buffer":0,"byteOffset":0,"byteLength":10464,"byteStride":32,"target":34962},{"buffer":0,"byteOffset":10464,"byteLength":2352,"target":34963}],"samplers":[{"magFilter":9729,"minFilter":9987,"wrapS":10497,"wrapT":10497}],"textures":[{"source":0,"sampler":0}],"images":[{"name":"furniturebits_texture","mimeType":"image/png","uri":"furniturebits_texture.png"}],"buffers":[{"uri":"lamp_table.0e439326.bin","byteLength":12816}],"materials":[{"name":"furniture_texture","pbrMetallicRoughness":{"roughnessFactor":0.5,"metallicFactor":0,"baseColorTexture":{"index":0}}}],"meshes":[{"name":"Sphere.001","primitives":[{"attributes":{"POSITION":0,"TEXCOORD_0":1,"NORMAL":2},"mode":4,"material":0,"indices":3}]}],"nodes":[{"name":"lamp_table","mesh":0}],"scenes":[{"name":"Scene","nodes":[0]}],"scene":0}