{"asset":{"generator":"glTF-Transform v4.4.2","version":"2.0"},"accessors":[{"type":"VEC3","componentType":5126,"count":360,"max":[0.9073365330696106,1.50800359249115,1.005179524421692],"min":[-0.8512817621231079,1.341104507446289e-7,-1.0178070068359375],"bufferView":0,"byteOffset":0},{"type":"VEC2","componentType":5126,"count":360,"bufferView":0,"byteOffset":12},{"type":"VEC3","componentType":5126,"count":360,"bufferView":0,"byteOffset":20},{"type":"SCALAR","componentType":5123,"count":600,"bufferView":1,"byteOffset":0}],"bufferViews":[{"buffer":0,"byteOffset":0,"byteLength":11520,"byteStride":32,"target":34962},{"buffer":0,"byteOffset":11520,"byteLength":1200,"target":34963}],"samplers":[{"magFilter":9729,"minFilter":9987,"wrapS":10497,"wrapT":10497}],"textures":[{"source":0,"sampler":0}],"images":[{"name":"hexagons_medieval","mimeType":"image/png","uri":"hexagons_medieval.png"}],"buffers":[{"uri":"mountain_C.37a29378.bin","byteLength":12720}],"materials":[{"name":"hexagons_medieval","pbrMetallicRoughness":{"roughnessFactor":0.5,"metallicFactor":0,"baseColorTexture":{"index":0}}}],"meshes":[{"name":"mountain_C","primitives":[{"attributes":{"POSITION":0,"TEXCOORD_0":1,"NORMAL":2},"mode":4,"material":0,"indices":3}]}],"nodes":[{"name":"mountain_C","mesh":0}],"scenes":[{"name":"Scene","nodes":[0]}],"scene":0}