{"asset":{"generator":"glTF-Transform v4.4.2","version":"2.0"},"accessors":[{"type":"VEC3","componentType":5126,"count":216,"max":[0.9073365330696106,1.4253854751586914,0.9390947818756104],"min":[-0.893681526184082,1.043081283569336e-7,-0.9370760917663574],"bufferView":0,"byteOffset":0},{"type":"VEC2","componentType":5126,"count":216,"bufferView":0,"byteOffset":12},{"type":"VEC3","componentType":5126,"count":216,"bufferView":0,"byteOffset":20},{"type":"SCALAR","componentType":5123,"count":360,"bufferView":1,"byteOffset":0}],"bufferViews":[{"buffer":0,"byteOffset":0,"byteLength":6912,"byteStride":32,"target":34962},{"buffer":0,"byteOffset":6912,"byteLength":720,"target":34963}],"samplers":[{"magFilter":9729,"minFilter":9987,"wrapS":10497,"wrapT":10497}],"textures":[{"source":0,"sampler":0}],"images":[{"name":"hexagons_medieval","mimeType":"image/png","uri":"hexagons_medieval.png"}],"buffers":[{"uri":"mountain_A.bd3db8b6.bin","byteLength":7632}],"materials":[{"name":"hexagons_medieval","pbrMetallicRoughness":{"roughnessFactor":0.5,"metallicFactor":0,"baseColorTexture":{"index":0}}}],"meshes":[{"name":"mountain_A","primitives":[{"attributes":{"POSITION":0,"TEXCOORD_0":1,"NORMAL":2},"mode":4,"material":0,"indices":3}]}],"nodes":[{"name":"mountain_A","mesh":0}],"scenes":[{"name":"Scene","nodes":[0]}],"scene":0}