{"asset":{"generator":"glTF-Transform v4.4.2","version":"2.0"},"accessors":[{"type":"VEC3","componentType":5126,"count":88,"max":[1.0000001192092896,0.6000000834465027,0.20000004768371582],"min":[-1,-0.6000000834465027,-3.7620480952682556e-8],"bufferView":0,"byteOffset":0},{"type":"VEC2","componentType":5126,"count":88,"bufferView":0,"byteOffset":12},{"type":"VEC3","componentType":5126,"count":88,"bufferView":0,"byteOffset":20},{"type":"SCALAR","componentType":5123,"count":180,"bufferView":1,"byteOffset":0}],"bufferViews":[{"buffer":0,"byteOffset":0,"byteLength":2816,"byteStride":32,"target":34962},{"buffer":0,"byteOffset":2816,"byteLength":360,"target":34963}],"samplers":[{"magFilter":9729,"minFilter":9987,"wrapS":10497,"wrapT":10497}],"textures":[{"source":0,"sampler":0}],"images":[{"name":"furniturebits_texture","mimeType":"image/png","uri":"furniturebits_texture.png"}],"buffers":[{"uri":"pictureframe_large_B.3371f16e.bin","byteLength":3176}],"materials":[{"name":"furniture_texture","pbrMetallicRoughness":{"roughnessFactor":0.5,"metallicFactor":0,"baseColorTexture":{"index":0}}}],"meshes":[{"name":"Cube.018","primitives":[{"attributes":{"POSITION":0,"TEXCOORD_0":1,"NORMAL":2},"mode":4,"material":0,"indices":3}]}],"nodes":[{"name":"pictureframe_large_B","mesh":0}],"scenes":[{"name":"Scene","nodes":[0]}],"scene":0}