{
  "asset": {
    "generator": "glTF-Transform v4.4.2",
    "version": "2.0"
  },
  "accessors": [
    {
      "type": "VEC3",
      "componentType": 5126,
      "count": 69,
      "max": [
        0.32499998807907104,
        0.10000000149011612,
        0.2500000596046448
      ],
      "min": [
        -0.32500001788139343,
        -0.09999999403953552,
        -0.25
      ],
      "bufferView": 0,
      "byteOffset": 0
    },
    {
      "type": "VEC2",
      "componentType": 5126,
      "count": 69,
      "bufferView": 0,
      "byteOffset": 12
    },
    {
      "type": "VEC3",
      "componentType": 5126,
      "count": 69,
      "bufferView": 0,
      "byteOffset": 20
    },
    {
      "type": "SCALAR",
      "componentType": 5123,
      "count": 258,
      "bufferView": 1,
      "byteOffset": 0
    }
  ],
  "bufferViews": [
    {
      "buffer": 0,
      "byteOffset": 0,
      "byteLength": 2208,
      "byteStride": 32,
      "target": 34962
    },
    {
      "buffer": 0,
      "byteOffset": 2208,
      "byteLength": 516,
      "target": 34963
    }
  ],
  "samplers": [
    {
      "magFilter": 9729,
      "minFilter": 9987,
      "wrapS": 10497,
      "wrapT": 10497
    }
  ],
  "textures": [
    {
      "source": 0,
      "sampler": 0
    }
  ],
  "images": [
    {
      "name": "furniturebits_texture",
      "mimeType": "image/png",
      "uri": "furniturebits_texture.png"
    }
  ],
  "buffers": [
    {
      "uri": "pillow_A.bin",
      "byteLength": 2724
    }
  ],
  "materials": [
    {
      "name": "furniture_texture",
      "pbrMetallicRoughness": {
        "roughnessFactor": 0.5,
        "metallicFactor": 0,
        "baseColorTexture": {
          "index": 0
        }
      }
    }
  ],
  "meshes": [
    {
      "name": "Cube.006",
      "primitives": [
        {
          "attributes": {
            "POSITION": 0,
            "TEXCOORD_0": 1,
            "NORMAL": 2
          },
          "mode": 4,
          "material": 0,
          "indices": 3
        }
      ]
    }
  ],
  "nodes": [
    {
      "name": "pillow_A",
      "mesh": 0
    }
  ],
  "scenes": [
    {
      "name": "Scene",
      "nodes": [
        0
      ]
    }
  ],
  "scene": 0
}