{"asset":{"generator":"glTF-Transform v4.4.2","version":"2.0"},"accessors":[{"type":"VEC3","componentType":5126,"count":320,"max":[0.21054169535636902,0.27999743819236755,0.18078866600990295],"min":[-0.21055184304714203,-4.172325134277344e-7,-0.17706181108951569],"bufferView":0,"byteOffset":0},{"type":"VEC2","componentType":5126,"count":320,"bufferView":0,"byteOffset":12},{"type":"VEC3","componentType":5126,"count":320,"bufferView":0,"byteOffset":20},{"type":"SCALAR","componentType":5123,"count":660,"bufferView":1,"byteOffset":0}],"bufferViews":[{"buffer":0,"byteOffset":0,"byteLength":10240,"byteStride":32,"target":34962},{"buffer":0,"byteOffset":10240,"byteLength":1320,"target":34963}],"samplers":[{"magFilter":9729,"minFilter":9987,"wrapS":10497,"wrapT":10497}],"textures":[{"source":0,"sampler":0}],"images":[{"name":"hexagons_medieval","mimeType":"image/png","uri":"hexagons_medieval.png"}],"buffers":[{"uri":"resource_stone.b0a5ade7.bin","byteLength":11560}],"materials":[{"name":"hexagons_medieval","pbrMetallicRoughness":{"roughnessFactor":0.5,"metallicFactor":0,"baseColorTexture":{"index":0}}}],"meshes":[{"name":"Cube.568","primitives":[{"attributes":{"POSITION":0,"TEXCOORD_0":1,"NORMAL":2},"mode":4,"material":0,"indices":3}]}],"nodes":[{"name":"resource_stone","mesh":0}],"scenes":[{"name":"Scene","nodes":[0]}],"scene":0}