{"asset":{"generator":"glTF-Transform v4.4.2","version":"2.0"},"accessors":[{"type":"VEC3","componentType":5126,"count":35,"max":[0.14910902082920074,0.06930101662874222,0.12683971226215363],"min":[-0.14910900592803955,0,-0.15678249299526215],"bufferView":0,"byteOffset":0},{"type":"VEC2","componentType":5126,"count":35,"bufferView":0,"byteOffset":12},{"type":"VEC3","componentType":5126,"count":35,"bufferView":0,"byteOffset":20},{"type":"SCALAR","componentType":5123,"count":54,"bufferView":1,"byteOffset":0}],"bufferViews":[{"buffer":0,"byteOffset":0,"byteLength":1120,"byteStride":32,"target":34962},{"buffer":0,"byteOffset":1120,"byteLength":108,"target":34963}],"samplers":[{"magFilter":9729,"minFilter":9987,"wrapS":10497,"wrapT":10497}],"textures":[{"source":0,"sampler":0}],"images":[{"name":"hexagons_medieval","mimeType":"image/png","uri":"hexagons_medieval.png"}],"buffers":[{"uri":"rock_single_A.86130593.bin","byteLength":1228}],"materials":[{"name":"hexagons_medieval","pbrMetallicRoughness":{"roughnessFactor":0.5,"metallicFactor":0,"baseColorTexture":{"index":0}}}],"meshes":[{"name":"rock_single_A","primitives":[{"attributes":{"POSITION":0,"TEXCOORD_0":1,"NORMAL":2},"mode":4,"material":0,"indices":3}]}],"nodes":[{"name":"rock_single_A","mesh":0}],"scenes":[{"name":"Scene","nodes":[0]}],"scene":0}