{"asset":{"generator":"glTF-Transform v4.4.2","version":"2.0"},"accessors":[{"type":"VEC3","componentType":5126,"count":38,"max":[0.14463868737220764,0.16293124854564667,0.12004894018173218],"min":[-0.14197711646556854,-9.681238033465434e-10,-0.12970057129859924],"bufferView":0,"byteOffset":0},{"type":"VEC2","componentType":5126,"count":38,"bufferView":0,"byteOffset":12},{"type":"VEC3","componentType":5126,"count":38,"bufferView":0,"byteOffset":20},{"type":"SCALAR","componentType":5123,"count":66,"bufferView":1,"byteOffset":0}],"bufferViews":[{"buffer":0,"byteOffset":0,"byteLength":1216,"byteStride":32,"target":34962},{"buffer":0,"byteOffset":1216,"byteLength":132,"target":34963}],"samplers":[{"magFilter":9729,"minFilter":9987,"wrapS":10497,"wrapT":10497}],"textures":[{"source":0,"sampler":0}],"images":[{"name":"hexagons_medieval","mimeType":"image/png","uri":"hexagons_medieval.png"}],"buffers":[{"uri":"rock_single_D.5f7279cf.bin","byteLength":1348}],"materials":[{"name":"hexagons_medieval","pbrMetallicRoughness":{"roughnessFactor":0.5,"metallicFactor":0,"baseColorTexture":{"index":0}}}],"meshes":[{"name":"rock_single_D","primitives":[{"attributes":{"POSITION":0,"TEXCOORD_0":1,"NORMAL":2},"mode":4,"material":0,"indices":3}]}],"nodes":[{"name":"rock_single_D","mesh":0}],"scenes":[{"name":"Scene","nodes":[0]}],"scene":0}