{"asset":{"generator":"glTF-Transform v4.4.2","version":"2.0"},"accessors":[{"type":"VEC3","componentType":5126,"count":61,"max":[0.1586364507675171,0.19468727707862854,0.16218942403793335],"min":[-0.18526723980903625,-0.0000938796074478887,-0.18201489746570587],"bufferView":0,"byteOffset":0},{"type":"VEC2","componentType":5126,"count":61,"bufferView":0,"byteOffset":12},{"type":"VEC3","componentType":5126,"count":61,"bufferView":0,"byteOffset":20},{"type":"SCALAR","componentType":5123,"count":120,"bufferView":1,"byteOffset":0}],"bufferViews":[{"buffer":0,"byteOffset":0,"byteLength":1952,"byteStride":32,"target":34962},{"buffer":0,"byteOffset":1952,"byteLength":240,"target":34963}],"samplers":[{"magFilter":9729,"minFilter":9987,"wrapS":10497,"wrapT":10497}],"textures":[{"source":0,"sampler":0}],"images":[{"name":"hexagons_medieval","mimeType":"image/png","uri":"hexagons_medieval.png"}],"buffers":[{"uri":"rock_single_C.33a45f1b.bin","byteLength":2192}],"materials":[{"name":"hexagons_medieval","pbrMetallicRoughness":{"roughnessFactor":0.5,"metallicFactor":0,"baseColorTexture":{"index":0}}}],"meshes":[{"name":"rock_single_C","primitives":[{"attributes":{"POSITION":0,"TEXCOORD_0":1,"NORMAL":2},"mode":4,"material":0,"indices":3}]}],"nodes":[{"name":"rock_single_C","mesh":0}],"scenes":[{"name":"Scene","nodes":[0]}],"scene":0}