{"asset":{"generator":"glTF-Transform v4.4.2","version":"2.0"},"accessors":[{"type":"VEC3","componentType":5126,"count":72,"max":[1.5,0.09999996423721313,1],"min":[-1.5,0,-1],"bufferView":0,"byteOffset":0},{"type":"VEC2","componentType":5126,"count":72,"bufferView":0,"byteOffset":12},{"type":"VEC3","componentType":5126,"count":72,"bufferView":0,"byteOffset":20},{"type":"SCALAR","componentType":5123,"count":204,"bufferView":1,"byteOffset":0}],"bufferViews":[{"buffer":0,"byteOffset":0,"byteLength":2304,"byteStride":32,"target":34962},{"buffer":0,"byteOffset":2304,"byteLength":408,"target":34963}],"samplers":[{"magFilter":9729,"minFilter":9987,"wrapS":10497,"wrapT":10497}],"textures":[{"source":0,"sampler":0}],"images":[{"name":"furniturebits_texture","mimeType":"image/png","uri":"furniturebits_texture.png"}],"buffers":[{"uri":"rug_rectangle_stripes_A.dec0e532.bin","byteLength":2712}],"materials":[{"name":"furniture_texture","pbrMetallicRoughness":{"roughnessFactor":0.5,"metallicFactor":0,"baseColorTexture":{"index":0}}}],"meshes":[{"name":"Cube.022","primitives":[{"attributes":{"POSITION":0,"TEXCOORD_0":1,"NORMAL":2},"mode":4,"material":0,"indices":3}]}],"nodes":[{"name":"rug_rectangle_stripes_A","mesh":0}],"scenes":[{"name":"Scene","nodes":[0]}],"scene":0}