{"asset":{"generator":"glTF-Transform v4.4.2","version":"2.0"},"accessors":[{"type":"VEC3","componentType":5126,"count":30,"max":[0.08478540927171707,0.22763319313526154,0.07260715961456299],"min":[-0.08489087969064713,-0.10260728746652603,-0.08909786492586136],"bufferView":0,"byteOffset":0},{"type":"VEC2","componentType":5126,"count":30,"bufferView":0,"byteOffset":12},{"type":"VEC3","componentType":5126,"count":30,"bufferView":0,"byteOffset":20},{"type":"SCALAR","componentType":5123,"count":48,"bufferView":1,"byteOffset":0}],"bufferViews":[{"buffer":0,"byteOffset":0,"byteLength":960,"byteStride":32,"target":34962},{"buffer":0,"byteOffset":960,"byteLength":96,"target":34963}],"samplers":[{"magFilter":9729,"minFilter":9987,"wrapS":10497,"wrapT":10497}],"textures":[{"source":0,"sampler":0}],"images":[{"name":"hexagons_medieval","mimeType":"image/png","uri":"hexagons_medieval.png"}],"buffers":[{"uri":"tree_single_A_cut.a4f4fdc1.bin","byteLength":1056}],"materials":[{"name":"hexagons_medieval","pbrMetallicRoughness":{"roughnessFactor":0.5,"metallicFactor":0,"baseColorTexture":{"index":0}}}],"meshes":[{"name":"tree_single_A_cut","primitives":[{"attributes":{"POSITION":0,"TEXCOORD_0":1,"NORMAL":2},"mode":4,"material":0,"indices":3}]}],"nodes":[{"name":"tree_single_A_cut","mesh":0}],"scenes":[{"name":"Scene","nodes":[0]}],"scene":0}