{"asset":{"generator":"glTF-Transform v4.4.2","version":"2.0"},"accessors":[{"type":"VEC3","componentType":5126,"count":1335,"max":[0.9422738552093506,1.1525464057922363,0.9467577934265137],"min":[-0.9069904088973999,-0.022003119811415672,-0.9857243895530701],"bufferView":0,"byteOffset":0},{"type":"VEC2","componentType":5126,"count":1335,"bufferView":0,"byteOffset":12},{"type":"VEC3","componentType":5126,"count":1335,"bufferView":0,"byteOffset":20},{"type":"SCALAR","componentType":5123,"count":4620,"bufferView":1,"byteOffset":0}],"bufferViews":[{"buffer":0,"byteOffset":0,"byteLength":42720,"byteStride":32,"target":34962},{"buffer":0,"byteOffset":42720,"byteLength":9240,"target":34963}],"samplers":[{"magFilter":9729,"minFilter":9987,"wrapS":10497,"wrapT":10497}],"textures":[{"source":0,"sampler":0}],"images":[{"name":"hexagons_medieval","mimeType":"image/png","uri":"hexagons_medieval.png"}],"buffers":[{"uri":"trees_B_large.04d2bef9.bin","byteLength":51960}],"materials":[{"name":"hexagons_medieval","pbrMetallicRoughness":{"roughnessFactor":0.5,"metallicFactor":0,"baseColorTexture":{"index":0}}}],"meshes":[{"name":"trees_B_large","primitives":[{"attributes":{"POSITION":0,"TEXCOORD_0":1,"NORMAL":2},"mode":4,"material":0,"indices":3}]}],"nodes":[{"name":"trees_B_large","mesh":0}],"scenes":[{"name":"Scene","nodes":[0]}],"scene":0}