{"asset":{"generator":"glTF-Transform v4.4.2","version":"2.0"},"accessors":[{"type":"VEC3","componentType":5126,"count":900,"max":[0.8899663090705872,1.2748571634292603,0.9411073923110962],"min":[-0.8614574074745178,-0.020493030548095703,-0.8731716275215149],"bufferView":0,"byteOffset":0},{"type":"VEC2","componentType":5126,"count":900,"bufferView":0,"byteOffset":12},{"type":"VEC3","componentType":5126,"count":900,"bufferView":0,"byteOffset":20},{"type":"SCALAR","componentType":5123,"count":1440,"bufferView":1,"byteOffset":0}],"bufferViews":[{"buffer":0,"byteOffset":0,"byteLength":28800,"byteStride":32,"target":34962},{"buffer":0,"byteOffset":28800,"byteLength":2880,"target":34963}],"samplers":[{"magFilter":9729,"minFilter":9987,"wrapS":10497,"wrapT":10497}],"textures":[{"source":0,"sampler":0}],"images":[{"name":"hexagons_medieval","mimeType":"image/png","uri":"hexagons_medieval.png"}],"buffers":[{"uri":"trees_A_medium.ef53b529.bin","byteLength":31680}],"materials":[{"name":"hexagons_medieval","pbrMetallicRoughness":{"roughnessFactor":0.5,"metallicFactor":0,"baseColorTexture":{"index":0}}}],"meshes":[{"name":"trees_A_medium","primitives":[{"attributes":{"POSITION":0,"TEXCOORD_0":1,"NORMAL":2},"mode":4,"material":0,"indices":3}]}],"nodes":[{"name":"trees_A_medium","mesh":0}],"scenes":[{"name":"Scene","nodes":[0]}],"scene":0}