{"asset":{"generator":"glTF-Transform v4.4.2","version":"2.0"},"accessors":[{"type":"VEC3","componentType":5126,"count":569,"max":[0.6355760097503662,0.9153724908828735,0.635351300239563],"min":[-0.6927986145019531,-0.006497662980109453,-0.5030813813209534],"bufferView":0,"byteOffset":0},{"type":"VEC2","componentType":5126,"count":569,"bufferView":0,"byteOffset":12},{"type":"VEC3","componentType":5126,"count":569,"bufferView":0,"byteOffset":20},{"type":"SCALAR","componentType":5123,"count":1980,"bufferView":1,"byteOffset":0}],"bufferViews":[{"buffer":0,"byteOffset":0,"byteLength":18208,"byteStride":32,"target":34962},{"buffer":0,"byteOffset":18208,"byteLength":3960,"target":34963}],"samplers":[{"magFilter":9729,"minFilter":9987,"wrapS":10497,"wrapT":10497}],"textures":[{"source":0,"sampler":0}],"images":[{"name":"hexagons_medieval","mimeType":"image/png","uri":"hexagons_medieval.png"}],"buffers":[{"uri":"trees_B_small.be341598.bin","byteLength":22168}],"materials":[{"name":"hexagons_medieval","pbrMetallicRoughness":{"roughnessFactor":0.5,"metallicFactor":0,"baseColorTexture":{"index":0}}}],"meshes":[{"name":"trees_B_small","primitives":[{"attributes":{"POSITION":0,"TEXCOORD_0":1,"NORMAL":2},"mode":4,"material":0,"indices":3}]}],"nodes":[{"name":"trees_B_small","mesh":0}],"scenes":[{"name":"Scene","nodes":[0]}],"scene":0}