{"asset":{"generator":"glTF-Transform v4.4.2","version":"2.0"},"accessors":[{"type":"VEC3","componentType":5126,"count":810,"max":[0.665834367275238,1.0884511470794678,0.7044746279716492],"min":[-0.760493814945221,-0.020493030548095703,-0.7305492758750916],"bufferView":0,"byteOffset":0},{"type":"VEC2","componentType":5126,"count":810,"bufferView":0,"byteOffset":12},{"type":"VEC3","componentType":5126,"count":810,"bufferView":0,"byteOffset":20},{"type":"SCALAR","componentType":5123,"count":1296,"bufferView":1,"byteOffset":0}],"bufferViews":[{"buffer":0,"byteOffset":0,"byteLength":25920,"byteStride":32,"target":34962},{"buffer":0,"byteOffset":25920,"byteLength":2592,"target":34963}],"samplers":[{"magFilter":9729,"minFilter":9987,"wrapS":10497,"wrapT":10497}],"textures":[{"source":0,"sampler":0}],"images":[{"name":"hexagons_medieval","mimeType":"image/png","uri":"hexagons_medieval.png"}],"buffers":[{"uri":"trees_A_small.e4b705c1.bin","byteLength":28512}],"materials":[{"name":"hexagons_medieval","pbrMetallicRoughness":{"roughnessFactor":0.5,"metallicFactor":0,"baseColorTexture":{"index":0}}}],"meshes":[{"name":"trees_A_small","primitives":[{"attributes":{"POSITION":0,"TEXCOORD_0":1,"NORMAL":2},"mode":4,"material":0,"indices":3}]}],"nodes":[{"name":"trees_A_small","mesh":0}],"scenes":[{"name":"Scene","nodes":[0]}],"scene":0}