{"asset":{"generator":"glTF-Transform v4.4.2","version":"2.0"},"accessors":[{"type":"VEC3","componentType":5126,"count":189,"max":[0.34244194626808167,1.1126774549484253,0.360063761472702],"min":[-0.34244003891944885,-0.09999983757734299,-0.3600638508796692],"bufferView":0,"byteOffset":0},{"type":"VEC2","componentType":5126,"count":189,"bufferView":0,"byteOffset":12},{"type":"VEC3","componentType":5126,"count":189,"bufferView":0,"byteOffset":20},{"type":"SCALAR","componentType":5123,"count":660,"bufferView":1,"byteOffset":0}],"bufferViews":[{"buffer":0,"byteOffset":0,"byteLength":6048,"byteStride":32,"target":34962},{"buffer":0,"byteOffset":6048,"byteLength":1320,"target":34963}],"samplers":[{"magFilter":9729,"minFilter":9987,"wrapS":10497,"wrapT":10497}],"textures":[{"source":0,"sampler":0}],"images":[{"name":"hexagons_medieval","mimeType":"image/png","uri":"hexagons_medieval.png"}],"buffers":[{"uri":"tree_single_B.feb84a01.bin","byteLength":7368}],"materials":[{"name":"hexagons_medieval","pbrMetallicRoughness":{"roughnessFactor":0.5,"metallicFactor":0,"baseColorTexture":{"index":0}}}],"meshes":[{"name":"tree_single_B","primitives":[{"attributes":{"POSITION":0,"TEXCOORD_0":1,"NORMAL":2},"mode":4,"material":0,"indices":3}]}],"nodes":[{"name":"tree_single_B","mesh":0}],"scenes":[{"name":"Scene","nodes":[0]}],"scene":0}