{"asset":{"generator":"glTF-Transform v4.4.2","version":"2.0"},"accessors":[{"type":"VEC3","componentType":5126,"count":151,"max":[0.07337571680545807,0.23518936336040497,0.03890511393547058],"min":[-0.08457821607589722,-0.01904015988111496,-0.06416231393814087],"bufferView":0,"byteOffset":0},{"type":"VEC2","componentType":5126,"count":151,"bufferView":0,"byteOffset":12},{"type":"VEC3","componentType":5126,"count":151,"bufferView":0,"byteOffset":20},{"type":"SCALAR","componentType":5123,"count":486,"bufferView":1,"byteOffset":0}],"bufferViews":[{"buffer":0,"byteOffset":0,"byteLength":4832,"byteStride":32,"target":34962},{"buffer":0,"byteOffset":4832,"byteLength":972,"target":34963}],"samplers":[{"magFilter":9729,"minFilter":9987,"wrapS":10497,"wrapT":10497}],"textures":[{"source":0,"sampler":0}],"images":[{"name":"hexagons_medieval","mimeType":"image/png","uri":"hexagons_medieval.png"}],"buffers":[{"uri":"waterplant_B.f4e1fbfe.bin","byteLength":5804}],"materials":[{"name":"hexagons_medieval","pbrMetallicRoughness":{"roughnessFactor":0.5,"metallicFactor":0,"baseColorTexture":{"index":0}}}],"meshes":[{"name":"waterplant_B","primitives":[{"attributes":{"POSITION":0,"TEXCOORD_0":1,"NORMAL":2},"mode":4,"material":0,"indices":3}]}],"nodes":[{"name":"waterplant_B","mesh":0}],"scenes":[{"name":"Scene","nodes":[0]}],"scene":0}