{"asset":{"generator":"glTF-Transform v4.4.2","version":"2.0"},"accessors":[{"type":"VEC3","componentType":5126,"count":69,"max":[0.07257223129272461,0.017148621380329132,0.07205497473478317],"min":[-0.07257223129272461,0,-0.0725722461938858],"bufferView":0,"byteOffset":0},{"type":"VEC2","componentType":5126,"count":69,"bufferView":0,"byteOffset":12},{"type":"VEC3","componentType":5126,"count":69,"bufferView":0,"byteOffset":20},{"type":"SCALAR","componentType":5123,"count":204,"bufferView":1,"byteOffset":0}],"bufferViews":[{"buffer":0,"byteOffset":0,"byteLength":2208,"byteStride":32,"target":34962},{"buffer":0,"byteOffset":2208,"byteLength":408,"target":34963}],"samplers":[{"magFilter":9729,"minFilter":9987,"wrapS":10497,"wrapT":10497}],"textures":[{"source":0,"sampler":0}],"images":[{"name":"hexagons_medieval","mimeType":"image/png","uri":"hexagons_medieval.png"}],"buffers":[{"uri":"waterlily_A.94fe432d.bin","byteLength":2616}],"materials":[{"name":"hexagons_medieval","pbrMetallicRoughness":{"roughnessFactor":0.5,"metallicFactor":0,"baseColorTexture":{"index":0}}}],"meshes":[{"name":"waterlily_A","primitives":[{"attributes":{"POSITION":0,"TEXCOORD_0":1,"NORMAL":2},"mode":4,"material":0,"indices":3}]}],"nodes":[{"name":"waterlily_A","mesh":0}],"scenes":[{"name":"Scene","nodes":[0]}],"scene":0}