{
  "asset": {
    "generator": "glTF-Transform v4.4.2",
    "version": "2.0"
  },
  "accessors": [
    {
      "type": "VEC3",
      "componentType": 5126,
      "count": 520,
      "max": [
        0.11900032311677933,
        0.18841521441936493,
        0.2928791046142578
      ],
      "min": [
        -0.11899968236684799,
        -2.9802322387695312e-8,
        -0.2128005474805832
      ],
      "bufferView": 0,
      "byteOffset": 0
    },
    {
      "type": "VEC2",
      "componentType": 5126,
      "count": 520,
      "bufferView": 0,
      "byteOffset": 12
    },
    {
      "type": "VEC3",
      "componentType": 5126,
      "count": 520,
      "bufferView": 0,
      "byteOffset": 20
    },
    {
      "type": "SCALAR",
      "componentType": 5123,
      "count": 1188,
      "bufferView": 1,
      "byteOffset": 0
    }
  ],
  "bufferViews": [
    {
      "buffer": 0,
      "byteOffset": 0,
      "byteLength": 16640,
      "byteStride": 32,
      "target": 34962
    },
    {
      "buffer": 0,
      "byteOffset": 16640,
      "byteLength": 2376,
      "target": 34963
    }
  ],
  "samplers": [
    {
      "magFilter": 9729,
      "minFilter": 9987,
      "wrapS": 10497,
      "wrapT": 10497
    }
  ],
  "textures": [
    {
      "source": 0,
      "sampler": 0
    }
  ],
  "images": [
    {
      "name": "hexagons_medieval",
      "mimeType": "image/png",
      "uri": "hexagons_medieval.png"
    }
  ],
  "buffers": [
    {
      "uri": "wheelbarrow.bin",
      "byteLength": 19016
    }
  ],
  "materials": [
    {
      "name": "hexagons_medieval",
      "pbrMetallicRoughness": {
        "roughnessFactor": 0.5,
        "metallicFactor": 0,
        "baseColorTexture": {
          "index": 0
        }
      }
    }
  ],
  "meshes": [
    {
      "name": "wheelbarrow",
      "primitives": [
        {
          "attributes": {
            "POSITION": 0,
            "TEXCOORD_0": 1,
            "NORMAL": 2
          },
          "mode": 4,
          "material": 0,
          "indices": 3
        }
      ]
    }
  ],
  "nodes": [
    {
      "name": "wheelbarrow",
      "mesh": 0
    }
  ],
  "scenes": [
    {
      "name": "Scene",
      "nodes": [
        0
      ]
    }
  ],
  "scene": 0
}